Coordinates
version=1
nRows=11
nColumns=40
inDegrees=yes

Units are S.I. units (second, meters, Newtons, ...)
If the header above contains a line with 'inDegrees', this indicates whether rotational values are in degrees (yes) or radians (no).

endheader
time	pelvis_tilt	pelvis_list	pelvis_rotation	pelvis_tx	pelvis_ty	pelvis_tz	hip_flexion_r	hip_adduction_r	hip_rotation_r	knee_angle_r	knee_angle_r_beta	ankle_angle_r	subtalar_angle_r	mtp_angle_r	hip_flexion_l	hip_adduction_l	hip_rotation_l	knee_angle_l	knee_angle_l_beta	ankle_angle_l	subtalar_angle_l	mtp_angle_l	lumbar_extension	lumbar_bending	lumbar_rotation	arm_flex_r	arm_add_r	arm_rot_r	elbow_flex_r	pro_sup_r	wrist_flex_r	wrist_dev_r	arm_flex_l	arm_add_l	arm_rot_l	elbow_flex_l	pro_sup_l	wrist_flex_l	wrist_dev_l
      5.75000000	      9.97286472	      8.00647654	      1.38063656	     -0.36918091	      0.90744968	     -0.76724181	     28.31499307	     -6.17994595	     -1.08881074	     77.28313490	      1.34884516	     28.76980384	      0.00000000	      0.00000000	     52.32850744	      5.24216027	      0.51089264	      9.17834066	      0.16019226	     -7.60018531	      0.00000000	      0.00000000	    -21.41823913	     -2.43976096	      3.78911996	     89.95168285	    -20.24523980	     22.87928663	     43.19241003	     83.06667925	      0.00000000	      0.00000000	     89.95227391	     -6.82992732	     20.07563547	     39.73722249	     80.96690052	      0.00000000	      0.00000000
      5.75500000	      9.95045697	      8.01923119	      1.41336895	     -0.36926760	      0.90720840	     -0.76736843	     28.36363535	     -6.19386637	     -1.07900493	     77.33687685	      1.34978313	     28.77454114	      0.00000000	      0.00000000	     52.35240819	      5.28322364	      0.56031420	      9.19246305	      0.16043875	     -7.56401751	      0.00000000	      0.00000000	    -21.43173736	     -2.45672665	      3.81443274	     89.95166577	    -20.35107287	     22.87174305	     43.22161774	     82.94712994	      0.00000000	      0.00000000	     89.95240141	     -6.72069804	     19.99460936	     39.73575726	     81.04138271	      0.00000000	      0.00000000
      5.76000000	      9.92045614	      8.06094870	      1.42042902	     -0.36935520	      0.90696569	     -0.76739491	     28.43312929	     -6.21549179	     -1.01875196	     77.39359011	      1.35077297	     28.82941443	      0.00000000	      0.00000000	     52.40009012	      5.32021460	      0.50489609	      9.22989133	      0.16109199	     -7.52051733	      0.00000000	      0.00000000	    -21.44747202	     -2.51414417	      3.81880529	     89.95161749	    -20.40905437	     22.78303176	     43.28519795	     83.03252991	      0.00000000	      0.00000000	     89.95264305	     -6.67364425	     19.93045200	     39.79070073	     81.01746984	      0.00000000	      0.00000000
      5.76500000	      9.85802798	      8.11102835	      1.41527269	     -0.36952959	      0.90658859	     -0.76742137	     28.54453572	     -6.22049063	     -0.92742467	     77.46392669	      1.35200057	     29.02171367	      0.00000000	      0.00000000	     52.53720410	      5.33083328	      0.35233964	      9.46547689	      0.16520374	     -6.90096672	      0.00000000	      0.00000000	    -21.42955776	     -2.60576230	      3.88727797	     89.95169247	    -20.61114695	     24.12716145	     43.61389124	     72.31335279	      0.00000000	      0.00000000	     89.95260562	     -6.54911279	     21.04300964	     40.06152674	     70.61202508	      0.00000000	      0.00000000
      5.77000000	      9.83429488	      8.10358234	      1.45247244	     -0.36959719	      0.90640517	     -0.76749206	     28.59434676	     -6.20774870	     -0.92381909	     77.50151677	      1.35265664	     28.86319543	      0.00000000	      0.00000000	     52.57875892	      5.35314095	      0.48888699	      9.55131306	      0.16670186	     -6.74905817	      0.00000000	      0.00000000	    -21.44437360	     -2.58762007	      3.82960784	     89.95160732	    -20.53112561	     22.62828121	     43.40442801	     83.36406407	      0.00000000	      0.00000000	     89.95289640	     -6.55023030	     19.90008057	     39.84335510	     80.50445235	      0.00000000	      0.00000000
      5.77500000	      9.82133768	      8.14107385	      1.47677809	     -0.36970483	      0.90615087	     -0.76757418	     28.63069409	     -6.23190638	     -0.89256085	     77.54187838	      1.35336109	     28.98237219	      0.00000000	      0.00000000	     52.61161075	      5.40239109	      0.50898239	      9.58415524	      0.16727506	     -6.74709250	      0.00000000	      0.00000000	    -21.46939153	     -2.63551476	      3.82847869	     89.95163000	    -20.62012211	     23.16425429	     43.51559566	     78.87572461	      0.00000000	      0.00000000	     89.95297766	     -6.49117580	     20.33960117	     39.97468345	     76.42647666	      0.00000000	      0.00000000
      5.78000000	      9.84175207	      8.12207816	      1.52760456	     -0.36971603	      0.90603819	     -0.76757649	     28.60545057	     -6.19477920	     -0.89186362	     77.55589202	      1.35360567	     28.97767506	      0.00000000	      0.00000000	     52.57296800	      5.43249937	      0.64353990	      9.55695104	      0.16680026	     -6.69926336	      0.00000000	      0.00000000	    -21.52088249	     -2.62419595	      3.81162642	     89.95163610	    -20.69535825	     23.32871840	     43.59791949	     77.44794902	      0.00000000	      0.00000000	     89.95308569	     -6.41981094	     20.51284148	     39.99851952	     75.01136744	      0.00000000	      0.00000000
      5.78500000	      9.76635673	      8.10863290	      1.53599893	     -0.36979549	      0.90572508	     -0.76757940	     28.73507417	     -6.15890833	     -0.87454910	     77.62629564	      1.35483445	     28.92172431	      0.00000000	      0.00000000	     52.71496291	      5.42652868	      0.64679701	      9.68022181	      0.16895174	     -6.64912236	      0.00000000	      0.00000000	    -21.47740663	     -2.62319345	      3.85826035	     89.95159354	    -20.72757970	     22.49391828	     43.48501221	     83.20017745	      0.00000000	      0.00000000	     89.95329066	     -6.35106105	     19.86789025	     39.92385539	     80.12351985	      0.00000000	      0.00000000
      5.79000000	      9.72950311	      8.17335314	      1.52412240	     -0.36991181	      0.90547173	     -0.76763506	     28.81292175	     -6.18778984	     -0.77326508	     77.68384733	      1.35583891	     29.03707026	      0.00000000	      0.00000000	     52.77248899	      5.49089148	      0.54497304	      9.57733387	      0.16715601	     -7.27553794	      0.00000000	      0.00000000	    -21.47588979	     -2.71092966	      3.88088440	     89.95155960	    -20.80219121	     22.84478281	     43.60056489	     80.36015572	      0.00000000	      0.00000000	     89.95347500	     -6.26450087	     20.07065300	     39.97534202	     77.71761278	      0.00000000	      0.00000000
      5.79500000	      9.69931163	      8.19083972	      1.55321030	     -0.37000700	      0.90522933	     -0.76769951	     28.87666163	     -6.19971861	     -0.75788602	     77.72742012	      1.35659940	     28.97359146	      0.00000000	      0.00000000	     52.82748394	      5.52837598	      0.64878107	      9.62624423	      0.16800966	     -7.28456129	      0.00000000	      0.00000000	    -21.48315440	     -2.74099575	      3.89885870	     89.95149909	    -20.85312316	     22.35596755	     43.57741788	     83.23529946	      0.00000000	      0.00000000	     89.95359998	     -6.15939720	     19.66003677	     39.95264221	     80.51204546	      0.00000000	      0.00000000
      5.80000000	      9.68154397	      8.28734384	      1.53041410	     -0.37013600	      0.90495632	     -0.76772592	     28.94069110	     -6.25076206	     -0.63832630	     77.80129643	      1.35788879	     29.12826588	      0.00000000	      0.00000000	     52.88428896	      5.58581527	      0.59450270	      9.69540808	      0.16921679	     -7.22726972	      0.00000000	      0.00000000	    -21.50745255	     -2.86609250	      3.92020188	     89.95146654	    -20.94027839	     22.84005053	     43.71501326	     78.90864353	      0.00000000	      0.00000000	     89.95375106	     -6.09371732	     20.07156077	     40.09046163	     76.50187236	      0.00000000	      0.00000000
